# xmcd
#
# Track frame offsets:
#	150
#	19055
#	36786
#	57355
#	78253
#	97732
#	116290
#	131903
#	144944
#	165273
#	181232
#
# Disc length: 2690 seconds
# Revision: 0
# Processed by: cddbd v1.5.2PL0 Copyright (c) Steve Scherf et al.
# Submitted via: dBpowerAMP V12.0
#
DISCID=7d0a800b
DTITLE=The Vegabonds - Southern Sons
DYEAR=2012
DGENRE=Americana
TTITLE0=Carnival Man
TTITLE1=Georgia Fire
TTITLE2=American Eyes
TTITLE3=Alongside Mr Hyde
TTITLE4=City With A Passion
TTITLE5=Since You've Been Free
TTITLE6=Rooftop Surfin'
TTITLE7=Conscious Fog
TTITLE8=The Heist (Get Yourself In Line)
TTITLE9=Resolution
TTITLE10=The Joy We've Found
EXTD=
EXTT0=
EXTT1=
EXTT2=
EXTT3=
EXTT4=
EXTT5=
EXTT6=
EXTT7=
EXTT8=
EXTT9=
EXTT10=
PLAYORDER=
